# xmcd
#
# Track frame offsets:
#	150
#	11095
#	19855
#	31820
#	44032
#	52705
#	63300
#	74300
#	81170
#	91877
#
# Disc length: 1370 seconds
#
# Revision: 0
# Processed by: cddbd v1.5.1PL0 Copyright (c) Steve Scherf et al.
# Submitted via: dBpowerAMP V4.0
#
DISCID=7805580a
DTITLE=Waylon Jennings - Country Legends 
DYEAR=1900
DGENRE=Country
TTITLE0=Sally Was A Good Old Girl
TTITLE1=Love's Gonna Live Here
TTITLE2=Cryin'
TTITLE3=Don't Think Twice, It's Alright
TTITLE4=Abilene
TTITLE5=Money
TTITLE6=Dream Baby
TTITLE7=It's So Easy
TTITLE8=Burnin' Memories
TTITLE9=Big Mamou
EXTD=
EXTT0=
EXTT1=
EXTT2=
EXTT3=
EXTT4=
EXTT5=
EXTT6=
EXTT7=
EXTT8=
EXTT9=
PLAYORDER=
